<svg width="81" height="31" viewBox="0 0 81 31" fill="none" xmlns="http://www.w3.org/2000/svg">
<path d="M8.70711 30.7071C8.31658 31.0976 7.68342 31.0976 7.29289 30.7071L0.928932 24.3431C0.538406 23.9526 0.538406 23.3195 0.928932 22.9289C1.31946 22.5384 1.95262 22.5384 2.34315 22.9289L8 28.5858L13.6569 22.9289C14.0474 22.5384 14.6805 22.5384 15.0711 22.9289C15.4616 23.3195 15.4616 23.9526 15.0711 24.3431L8.70711 30.7071ZM79.8044 4.55133C67.8747 2.17141 50.0222 0.642264 35.2041 3.73088C27.7975 5.27467 21.2377 7.95412 16.5435 12.1732C11.8828 16.3621 9 22.1206 9 30H7C7 21.5622 10.1172 15.2599 15.2065 10.6857C20.2623 6.14165 27.2026 3.35569 34.796 1.77296C49.9778 -1.39145 68.1253 0.181983 80.1956 2.58998L79.8044 4.55133Z" fill="#6DB900"/>
</svg>
