<svg width="83" height="31" viewBox="0 0 83 31" fill="none" xmlns="http://www.w3.org/2000/svg">
<path d="M74.2929 30.7071C74.6834 31.0976 75.3166 31.0976 75.7071 30.7071L82.0711 24.3431C82.4616 23.9526 82.4616 23.3195 82.0711 22.9289C81.6805 22.5384 81.0474 22.5384 80.6569 22.9289L75 28.5858L69.3431 22.9289C68.9526 22.5384 68.3195 22.5384 67.9289 22.9289C67.5384 23.3195 67.5384 23.9526 67.9289 24.3431L74.2929 30.7071ZM1.19055 4.55233C13.4552 2.1717 31.8117 0.641378 47.0512 3.73197C54.6697 5.27699 61.4187 7.95909 66.248 12.1822C71.0416 16.3742 74 22.1303 74 30H76C76 21.5524 72.7917 15.2478 67.5645 10.6767C62.3729 6.13669 55.247 3.35336 47.4488 1.77187C31.855 -1.39056 13.2114 0.181692 0.809451 2.58898L1.19055 4.55233Z" fill="#6DB900"/>
</svg>
