<svg width="154" height="84" viewBox="0 0 154 84" fill="none" xmlns="http://www.w3.org/2000/svg">
<path d="M0.299927 83.0914C0.35041 83.6414 0.837176 84.0463 1.38715 83.9958C1.93712 83.9453 2.34204 83.4586 2.29155 82.9086L0.299927 83.0914ZM153.521 9.90493C153.993 9.617 154.141 9.00154 153.853 8.53024L149.161 0.850021C148.874 0.378724 148.258 0.230068 147.787 0.517989C147.315 0.805909 147.167 1.42138 147.455 1.89267L151.625 8.71953L144.798 12.8901C144.327 13.1781 144.178 13.7935 144.466 14.2648C144.754 14.7361 145.37 14.8848 145.841 14.5969L153.521 9.90493ZM2.29155 82.9086C0.582704 64.2922 6.03217 38.3483 27.8485 20.9252C49.6562 3.50896 88.0783 -5.60044 152.765 10.0236L153.235 8.07952C88.253 -7.61576 49.0927 1.39946 26.6004 19.3624C4.11661 37.3186 -1.45173 64.0086 0.299927 83.0914L2.29155 82.9086Z" fill="#6DB900"/>
</svg>
