<svg width="135" height="134" viewBox="0 0 135 134" fill="none" xmlns="http://www.w3.org/2000/svg">
<path d="M104.056 12.7623C104.586 12.6069 105.141 12.9106 105.297 13.4406C105.452 13.9705 105.148 14.5261 104.618 14.6815L104.056 12.7623ZM47.3509 129.167C47.2486 129.709 46.7258 130.066 46.183 129.964L37.3386 128.298C36.7959 128.196 36.4388 127.673 36.541 127.13C36.6433 126.587 37.1662 126.23 37.7089 126.332L45.5706 127.814L47.0517 119.952C47.154 119.409 47.6769 119.052 48.2196 119.154C48.7623 119.257 49.1194 119.779 49.0172 120.322L47.3509 129.167ZM104.618 14.6815C85.7378 20.2166 60.2837 32.5753 45.1249 51.5863C37.5617 61.0716 32.5808 72.1861 32.2161 84.9334C31.8514 97.6826 36.101 112.174 47.194 128.417L45.5424 129.545C34.2697 113.039 29.8375 98.1399 30.2169 84.8762C30.5964 71.6108 35.7859 60.0907 43.5611 50.3395C59.0794 30.8776 84.9754 18.3559 104.056 12.7623L104.618 14.6815Z" fill="#6DB900"/>
</svg>
