<svg width="95" height="96" viewBox="0 0 95 96" fill="none" xmlns="http://www.w3.org/2000/svg">
<path d="M72.7133 12.973C73.2648 13.0031 73.6874 13.4745 73.6574 14.026C73.6273 14.5775 73.1558 15.0001 72.6044 14.97L72.7133 12.973ZM38.9579 91.0866C38.7955 91.6145 38.2359 91.9108 37.708 91.7484L29.106 89.1017C28.5781 88.9393 28.2818 88.3797 28.4442 87.8519C28.6067 87.324 29.1662 87.0277 29.6941 87.1902L37.3404 89.5427L39.6929 81.8964C39.8553 81.3686 40.4149 81.0723 40.9428 81.2347C41.4707 81.3971 41.7669 81.9567 41.6045 82.4846L38.9579 91.0866ZM72.6044 14.97C59.0139 14.2287 49.3794 17.0343 42.7353 21.9282C36.0955 26.819 32.3215 33.8844 30.6211 41.9018C27.2074 57.9968 32.2072 77.7099 38.8859 90.3247L37.1183 91.2605C30.2963 78.375 25.1246 58.1774 28.6646 41.4869C30.441 33.1115 34.4251 25.5654 41.5492 20.3179C48.6689 15.0736 58.8039 12.2142 72.7133 12.973L72.6044 14.97Z" fill="white"/>
</svg>
