<svg width="46" height="46" viewBox="0 0 46 46" fill="none" xmlns="http://www.w3.org/2000/svg">
<path d="M25.1336 11.9734C24.7823 12.3237 24.7823 12.8933 25.1336 13.2435C25.4838 13.5948 26.0524 13.5948 26.4037 13.2435C26.7539 12.8933 26.7539 12.3237 26.4037 11.9734C26.0524 11.6221 25.4838 11.6221 25.1336 11.9734Z" fill="#929292"/>
<path d="M23.9096 14.5615C23.533 14.2383 22.9659 14.2814 22.6427 14.658C21.6467 15.8186 19.8172 18.0086 18.7527 19.637C18.4811 20.0521 18.5976 20.6091 19.0131 20.8804C19.4301 21.1527 19.986 21.0338 20.2566 20.62C21.3027 19.0193 23.227 16.7357 24.0061 15.8284C24.3293 15.4519 24.2858 14.8847 23.9096 14.5615Z" fill="#929292"/>
<path d="M30.2148 9.4325C28.4589 11.1873 28.4579 14.0286 30.2144 15.784C31.9699 17.5405 34.8108 17.5409 36.5663 15.784C38.3214 14.0289 38.3217 11.1883 36.5663 9.43285C34.8112 7.67774 31.9702 7.67704 30.2148 9.4325ZM35.2958 14.5139C35.2955 14.5139 35.2955 14.5139 35.2955 14.5139C34.2426 15.5675 32.5391 15.5685 31.4849 14.5136C30.4313 13.4607 30.4306 11.7569 31.4852 10.7033C32.5384 9.65009 34.2423 9.65009 35.2958 10.7033C36.3487 11.7562 36.349 13.4604 35.2958 14.5139Z" fill="#929292"/>
<path d="M1.53696 45.7323L7.15254 40.1164C7.50349 39.7658 7.50349 39.1969 7.15254 38.846C6.80159 38.4954 6.23304 38.4954 5.88209 38.846L0.26651 44.4615C-0.0844421 44.8125 -0.0844421 45.3814 0.26651 45.7323C0.617462 46.0829 1.186 46.0829 1.53696 45.7323Z" fill="#929292"/>
<path d="M10.5206 45.7323L16.1361 40.1164C16.4867 39.7658 16.4867 39.1969 16.1361 38.846C15.7852 38.4954 15.2167 38.4954 14.8653 38.846L9.24977 44.4615C8.89917 44.8125 8.89917 45.3814 9.24977 45.7323C9.60107 46.0829 10.1696 46.0829 10.5206 45.7323Z" fill="#929292"/>
<path d="M0.26651 36.7489C0.617462 37.0995 1.186 37.0995 1.53696 36.7489L7.15254 31.1333C7.50349 30.7823 7.50349 30.2134 7.15254 29.8628C6.80159 29.5119 6.23304 29.5119 5.88209 29.8628L0.26651 35.4784C-0.0844421 35.829 -0.0844421 36.3979 0.26651 36.7489Z" fill="#929292"/>
<path d="M45.9976 0.948412C46.012 0.69327 45.9165 0.444094 45.7358 0.263354C45.555 0.0826136 45.3055 -0.0135473 45.0507 0.0015437C40.4848 0.256335 29.5801 2.44417 22.5912 9.43303C21.0905 10.9337 19.6706 12.5309 18.3615 14.1856C12.7582 13.084 7.04685 14.8135 2.99581 18.8649C1.85767 20.003 0.888694 21.2892 0.115196 22.6885C-0.320335 23.4767 0.55178 24.3429 1.33581 23.9094C4.92745 21.9266 9.15116 21.4826 13.0674 22.6467C12.7214 23.4343 12.4396 24.1867 12.2287 24.8918C11.99 25.6842 12.1567 26.5433 12.6596 27.2168C12.4083 27.4186 12.1658 27.6355 11.9342 27.8671C9.62178 30.1796 9.15151 35.8151 9.13256 36.0541C9.09114 36.5778 9.50562 37.0235 10.0278 37.0235C10.0513 37.0235 10.0752 37.0224 10.0987 37.0207C10.3374 37.0017 15.974 36.5321 18.2868 34.2197C18.5279 33.9786 18.7532 33.7256 18.962 33.4634C19.6155 33.8754 20.3943 33.9856 21.1063 33.7715C21.8121 33.5603 22.5649 33.2781 23.3528 32.9321C24.5169 36.848 24.0729 41.072 22.0901 44.6637C21.651 45.4586 22.5347 46.3128 23.311 45.8839C24.7103 45.1108 25.9965 44.1418 27.1346 43.0037C31.1857 38.9526 32.9152 33.2409 31.8135 27.638C33.4686 26.3286 35.0658 24.9086 36.5665 23.4079C40.0069 19.9676 42.6134 15.3518 44.3144 9.68887C45.1988 6.8809 45.8828 3.00639 45.9976 0.948412ZM3.41871 21.0537C3.68789 20.7372 3.97075 20.4305 4.26626 20.1353C7.67786 16.7234 12.4066 15.1532 17.1311 15.8021C15.8375 17.5744 14.7236 19.3446 13.856 21.0088C10.4335 19.9282 6.78504 19.956 3.41871 21.0537ZM17.0163 32.9493C15.781 34.1846 12.8821 34.836 11.0505 35.102C11.3158 33.2718 11.9665 30.3757 13.2047 29.1376C13.4303 28.9119 13.6683 28.7041 13.9157 28.5146L17.6389 32.2379C17.4498 32.4853 17.242 32.7233 17.0163 32.9493ZM20.5901 32.0505C20.3107 32.1344 19.9805 32.0385 19.7485 31.8066C18.4654 30.5235 14.8067 26.8648 14.1929 26.251C13.9606 26.019 13.8651 25.6884 13.9494 25.408C14.1494 24.7391 14.4214 24.0186 14.7604 23.2584C16.5317 24.0196 18.1268 25.103 19.5116 26.4872C20.8961 27.8724 21.9795 29.4675 22.7407 31.2387C21.9806 31.5777 21.2597 31.8501 20.5901 32.0505ZM25.8642 41.7332C25.5687 42.0287 25.2623 42.3113 24.9454 42.5804C26.0435 39.2141 26.0713 35.5656 24.9907 32.1431C26.6545 31.2756 28.4247 30.1617 30.197 28.868C30.8463 33.5929 29.2758 38.3213 25.8642 41.7332ZM35.296 22.1375C32.1964 25.2367 28.2415 28.3855 24.3554 30.4477C23.5065 28.4999 22.308 26.7434 20.7821 25.2167C19.2554 23.6912 17.4993 22.4926 15.5515 21.644C17.6137 17.758 20.7624 13.8027 23.8617 10.7035C26.989 7.57614 31.1808 5.17422 36.3275 3.55914L42.44 9.67167C40.8253 14.8184 38.423 19.0102 35.296 22.1375ZM43.0075 7.69792L38.3012 2.99165C40.8112 2.33573 42.9166 2.02899 44.1056 1.89353C43.9701 3.08255 43.6638 5.18791 43.0075 7.69792Z" fill="#929292"/>
</svg>
