<svg width="60" height="49" viewBox="0 0 60 49" fill="none" xmlns="http://www.w3.org/2000/svg">
<path d="M24.1938 7.61689C22.3156 7.53919 20.4142 7.42188 18.5426 7.2686C18.0521 7.22876 17.622 7.59345 17.5818 8.084C17.5416 8.57443 17.9066 9.00462 18.3972 9.04482C19.0687 9.09978 19.7444 9.14853 20.421 9.19412V16.0651C20.4211 16.5572 20.8202 16.9562 21.3122 16.9562C21.8043 16.9562 22.2033 16.5572 22.2033 16.0651V9.30345C22.8435 9.33861 23.4833 9.37119 24.1203 9.39756C24.1327 9.39802 24.1453 9.39826 24.1577 9.39826C24.6328 9.39826 25.0274 9.02314 25.0474 8.54396C25.0676 8.05247 24.6855 7.63728 24.1938 7.61689Z" fill="#929292"/>
<path d="M49.8431 7.22974C49.777 6.742 49.3278 6.39981 48.8404 6.46626C46.9765 6.71868 45.0818 6.93653 43.2089 7.11337C42.7191 7.15966 42.3594 7.59443 42.4056 8.08427C42.4492 8.54576 42.8373 8.89158 43.2917 8.89158C43.3197 8.89158 43.3481 8.89029 43.3766 8.8876C43.9953 8.82912 44.6164 8.76478 45.2377 8.69763V15.4079C45.2376 15.9001 45.6365 16.2991 46.1287 16.2991C46.6209 16.2991 47.0198 15.9001 47.0198 15.4081V8.49396C47.7085 8.41088 48.3964 8.32474 49.0795 8.23216C49.5672 8.16619 49.909 7.71736 49.8431 7.22974Z" fill="#929292"/>
<path d="M40.3518 10.5466V10.2828C40.3518 9.51443 40.0509 8.80591 39.5044 8.28759C38.9524 7.76388 38.2205 7.49692 37.4389 7.53958C36.6986 7.57884 35.9497 7.61247 35.2132 7.64001C34.7343 7.65771 34.3552 8.05122 34.3552 8.53052V12.7387V16.2349C34.3552 16.727 34.7541 17.126 35.2463 17.126C35.7385 17.126 36.1374 16.727 36.1374 16.2349V13.5983C36.7901 13.6041 37.3917 13.8412 37.8434 14.2746C38.3116 14.7236 38.5695 15.3418 38.5695 16.0152C38.5695 16.5073 38.9684 16.9063 39.4606 16.9063C39.9528 16.9063 40.3517 16.5073 40.3517 16.0152C40.3517 14.8516 39.8989 13.7767 39.0769 12.9884C39.0756 12.9871 39.0741 12.9859 39.0727 12.9846C39.8422 12.4375 40.3518 11.5374 40.3518 10.5466ZM38.5696 10.5467C38.5696 11.1654 38.052 11.7153 37.439 11.7477H37.4389C37.0081 11.7705 36.5729 11.7916 36.1374 11.8106V9.38635C36.6025 9.36631 37.0696 9.34381 37.5332 9.3192C37.818 9.30349 38.0842 9.39678 38.2781 9.58076C38.466 9.75912 38.5696 10.0085 38.5696 10.283V10.5467Z" fill="#929292"/>
<path d="M29.2263 7.73438C28.4309 7.73344 27.6906 8.03297 27.1338 8.58669C26.5831 9.13442 26.2798 9.86532 26.2798 10.6449V16.3035C26.2798 16.7956 26.6789 17.1946 27.1709 17.1946C27.663 17.1946 28.062 16.7956 28.062 16.3035V13.6429C28.7088 13.6517 29.3571 13.6578 30.0045 13.6578C30.1305 13.6578 30.2554 13.6565 30.3813 13.6561V16.3264C30.3813 16.8184 30.7802 17.2175 31.2724 17.2175C31.7646 17.2175 32.1635 16.8184 32.1635 16.3264V10.6677C32.1634 9.05942 30.846 7.74364 29.2263 7.73438ZM30.3813 11.8747C29.6094 11.8767 28.8343 11.8725 28.062 11.8619V10.645C28.062 10.3432 28.1788 10.061 28.3906 9.85021C28.6086 9.63341 28.9001 9.51938 29.2165 9.51657C29.8586 9.5202 30.3812 10.0365 30.3812 10.6676V11.8747H30.3813Z" fill="#929292"/>
<path d="M13.304 10.5934L13.0668 10.5649C12.462 10.4915 11.9315 9.8896 11.9315 9.27682C11.9314 9.02264 12.0187 8.81111 12.1839 8.66475C12.3529 8.5151 12.5901 8.44994 12.8518 8.48182C13.5714 8.56924 14.3027 8.65244 15.0257 8.72908C15.5154 8.78076 15.9538 8.42627 16.0056 7.93678C16.0574 7.4474 15.7027 7.00865 15.2133 6.95685C14.4995 6.88126 13.7773 6.79923 13.0667 6.71275C12.291 6.61853 11.5581 6.83837 11.0021 7.33103C10.4521 7.81842 10.1493 8.50935 10.1493 9.27694C10.1493 10.8075 11.3366 12.1504 12.8522 12.3343L13.0916 12.3631C13.7079 12.4371 14.2286 13.0134 14.2286 13.6213C14.2286 13.8798 14.1339 14.1064 13.9619 14.2588C13.7916 14.4099 13.5581 14.4763 13.304 14.4457C12.5923 14.3604 11.8709 14.2683 11.16 14.1721C10.672 14.1061 10.2235 14.448 10.1575 14.9356C10.0914 15.4233 10.4332 15.8722 10.921 15.9381C11.6409 16.0355 12.3713 16.1288 13.0918 16.2152C13.2056 16.2289 13.3184 16.2356 13.4301 16.2356C14.0712 16.2356 14.6704 16.0127 15.1447 15.592C15.6951 15.1036 16.0109 14.3853 16.0109 13.6212C16.0109 12.1057 14.8219 10.7758 13.304 10.5934Z" fill="#929292"/>
<path d="M59.6931 0.217206C59.498 0.0478696 59.239 -0.0286541 58.9835 0.00802575C42.5292 2.34979 25.8016 2.68788 9.26593 1.01244C8.77656 0.962404 8.33921 1.31959 8.28953 1.80921C8.23984 2.29882 8.59667 2.73593 9.08629 2.78561C25.4253 4.44113 41.9485 4.14781 58.218 1.91456V19.0512C39.4887 21.6453 20.5116 21.6453 1.78219 19.0512V1.91456C3.15388 2.10276 4.53658 2.27843 5.90557 2.43862C6.39553 2.49651 6.8371 2.14589 6.89405 1.65709C6.95124 1.1683 6.60132 0.725685 6.11252 0.668614C4.41928 0.470684 2.7047 0.248495 1.01661 0.00814288C0.760433 -0.0283026 0.502033 0.0481039 0.307032 0.217323C0.112032 0.386426 0 0.632052 0 0.890217V19.8259C0 20.2696 0.326368 20.6456 0.765472 20.7081C1.4202 20.8013 2.07528 20.8907 2.7306 20.9775V47.297C2.7306 47.7891 3.12962 48.1881 3.62169 48.1881H7.18843C7.6805 48.1881 8.07952 47.7891 8.07952 47.297V21.6169C15.3672 22.3914 22.6836 22.7788 30 22.7788C37.3164 22.7788 44.6326 22.3915 51.92 21.6169V29.5378C51.92 30.0298 52.3189 30.4288 52.8111 30.4288C53.3033 30.4288 53.7022 30.0298 53.7022 29.5378V21.4196C54.2973 21.3511 54.8921 21.28 55.4869 21.2063V46.4059H53.7022V32.5081C53.7022 32.016 53.3033 31.617 52.8111 31.617C52.3189 31.617 51.92 32.016 51.92 32.5081V47.297C51.92 47.7891 52.3189 48.1881 52.8111 48.1881H56.378C56.8701 48.1881 57.2691 47.7891 57.2691 47.297V20.9778C57.9245 20.8909 58.5797 20.8014 59.2345 20.7082C59.6736 20.6458 60 20.2697 60 19.826V0.890217C60.0002 0.632052 59.8882 0.386426 59.6931 0.217206ZM6.29745 46.4059H4.51291V21.2062C5.10752 21.2799 5.70237 21.351 6.29745 21.4194V46.4059Z" fill="#929292"/>
</svg>
