<svg width="186" height="127" viewBox="0 0 186 127" fill="none" xmlns="http://www.w3.org/2000/svg">
<path d="M24.0332 125.754C24.1743 126.288 24.7215 126.607 25.2554 126.466C25.7894 126.325 26.1079 125.778 25.9669 125.244L24.0332 125.754ZM179.152 46.987C179.698 46.903 180.072 46.3925 179.988 45.8466L178.62 36.9512C178.536 36.4053 178.026 36.0309 177.48 36.1148C176.934 36.1988 176.559 36.7094 176.643 37.2552L177.86 45.1622L169.953 46.3784C169.407 46.4623 169.032 46.9729 169.116 47.5188C169.2 48.0646 169.711 48.4391 170.257 48.3551L179.152 46.987ZM25.9669 125.244C25.5453 123.648 25.1842 122.07 24.8816 120.512L22.9183 120.893C23.2295 122.496 23.6005 124.116 24.0332 125.754L25.9669 125.244ZM23.7347 111.036C23.5836 107.744 23.7019 104.547 24.0683 101.446L22.0821 101.212C21.7027 104.422 21.5808 107.729 21.7368 111.128L23.7347 111.036ZM25.9894 92.0972C26.9018 89.0179 28.0702 86.0468 29.4705 83.1865L27.6742 82.3071C26.2265 85.2643 25.0169 88.3394 24.0718 91.5289L25.9894 92.0972ZM34.3456 74.9376C36.1595 72.3398 38.1759 69.8516 40.3719 67.4764L38.9034 66.1187C36.6491 68.557 34.5748 71.1158 32.7058 73.7927L34.3456 74.9376ZM47.3286 60.8177C49.7422 58.7629 52.2987 56.8145 54.9777 54.9753L53.8457 53.3265C51.1129 55.2026 48.5012 57.1928 46.0321 59.2949L47.3286 60.8177ZM63.1865 49.8863C65.9706 48.3284 68.8485 46.8743 71.8021 45.5261L70.9716 43.7067C67.9704 45.0766 65.0436 46.5553 62.2099 48.1409L63.1865 49.8863ZM80.7435 41.8491C83.7592 40.7379 86.8292 39.7306 89.9363 38.8293L89.3791 36.9084C86.2277 37.8226 83.1128 38.8447 80.052 39.9725L80.7435 41.8491ZM99.3152 36.4533C102.475 35.7662 105.654 35.1871 108.834 34.7179L108.543 32.7393C105.317 33.2151 102.094 33.8023 98.8903 34.4989L99.3152 36.4533ZM118.446 33.6364C121.692 33.3852 124.922 33.2516 128.116 33.2379L128.107 31.2379C124.863 31.2518 121.585 31.3875 118.292 31.6424L118.446 33.6364ZM137.763 33.5721C141.03 33.8172 144.237 34.1975 147.361 34.715L147.688 32.7418C144.502 32.2141 141.236 31.8271 137.913 31.5777L137.763 33.5721ZM156.766 36.7632C159.937 37.6327 162.984 38.6651 165.881 39.8628L166.646 38.0145C163.666 36.7828 160.54 35.7241 157.295 34.8344L156.766 36.7632ZM174.435 44.158C175.813 44.9916 177.139 45.8738 178.409 46.805L179.591 45.1922C178.272 44.2247 176.897 43.3097 175.47 42.4468L174.435 44.158Z" fill="#929292" fill-opacity="0.5"/>
<path d="M126.696 65.729C126.042 64.5971 124.975 63.7677 123.526 63.2647C123.098 63.1161 122.631 63.3425 122.482 63.7704C122.334 64.1982 122.56 64.6652 122.988 64.8138C127.049 66.223 126.092 70.3272 123.455 73.8185L118.065 64.4839C118.811 64.3934 119.531 64.3534 120.218 64.3681C120.67 64.3777 121.045 64.0186 121.055 63.5658C121.064 63.113 120.705 62.7383 120.253 62.7287C113.908 62.5937 106.127 66.4574 101.297 71.068C99.7753 72.5202 99.4329 74.782 100.464 76.5686L104.193 83.0265C105.224 84.8131 107.354 85.6475 109.373 85.0559C120.295 81.8548 130.125 71.6689 126.696 65.729V65.729ZM108.912 83.4825C107.621 83.8603 106.265 83.3358 105.613 82.2066L101.884 75.7487C101.233 74.6196 101.456 73.1822 102.429 72.254C103.149 71.5674 103.922 70.9082 104.745 70.2802L111.779 82.4633C110.824 82.8622 109.866 83.2024 108.912 83.4825ZM113.282 81.787L106.083 69.3168C107.367 68.4425 108.751 67.6379 110.2 66.935L117.403 79.4103C116.074 80.3147 114.679 81.1127 113.282 81.787ZM118.74 78.4469L111.701 66.2552C113.278 65.5919 114.843 65.092 116.339 64.7733L122.339 75.165C121.325 76.2879 120.113 77.3997 118.74 78.4469Z" fill="#929292"/>
<path d="M101.06 86.1853L96.1624 77.7031C95.6055 76.7385 94.3682 76.407 93.404 76.9637L89.4367 79.2542C86.1341 81.1609 84.9983 85.3997 86.9051 88.7023C88.4845 91.438 91.7158 92.7542 94.7634 91.9034C95.1996 91.7813 95.4543 91.3292 95.3326 90.8928C95.211 90.4574 94.7584 90.2019 94.3226 90.3238C91.9961 90.9731 89.53 89.9693 88.3252 87.8825C86.8705 85.3629 87.7367 82.1291 90.2566 80.6743L94.2235 78.384C94.4019 78.2809 94.6393 78.3445 94.7423 78.523L99.6395 87.0052C99.7425 87.1836 99.6789 87.4209 99.5005 87.5239L96.8763 89.039C96.4843 89.2653 96.35 89.7667 96.5763 90.1587C96.8028 90.5511 97.3042 90.6854 97.6962 90.4591L100.32 88.944C101.285 88.3871 101.616 87.1498 101.06 86.1853Z" fill="#929292"/>
<path d="M126.193 101.459C126.544 101.173 126.597 100.657 126.311 100.305C126.026 99.9546 125.509 99.9014 125.158 100.187C124.906 100.392 124.647 100.593 124.385 100.793L117.348 88.6033C118.941 87.9371 120.51 87.4433 121.989 87.1273L127.988 97.5165C127.788 97.7377 127.579 97.9596 127.363 98.1814C127.046 98.5055 127.052 99.0243 127.376 99.341C127.7 99.6574 128.219 99.6514 128.536 99.3273C135.958 91.7315 133.786 84.5027 124.546 85.1021C118.463 85.4972 111.458 89.0991 106.941 93.4105C105.419 94.8626 105.077 97.1246 106.108 98.9112L109.837 105.369C110.868 107.156 112.998 107.99 115.017 107.398C119.079 106.208 123.077 103.995 126.193 101.459ZM129.104 96.1698L123.714 86.8338C131.269 85.8967 133.602 90.2176 129.104 96.1698ZM114.555 105.825C113.265 106.203 111.909 105.678 111.257 104.549L107.528 98.0913C106.876 96.9618 107.1 95.5247 108.073 94.5966C108.792 93.9096 109.566 93.2508 110.389 92.6224L117.423 104.806C116.468 105.205 115.51 105.545 114.555 105.825ZM118.926 104.129L111.727 91.6597C113.009 90.7868 114.397 89.978 115.845 89.2792L123.047 101.754C121.731 102.646 120.354 103.44 118.926 104.129Z" fill="#929292"/>
<path d="M106.703 108.528L101.806 100.046C101.249 99.0816 100.011 98.7498 99.0473 99.3064L95.08 101.597C91.7771 103.504 90.6416 107.743 92.5484 111.045C94.4553 114.348 98.6938 115.484 101.997 113.577L105.964 111.287C106.928 110.73 107.26 109.493 106.703 108.528ZM101.177 112.157C98.6573 113.612 95.4233 112.745 93.9685 110.225C92.5138 107.706 93.3803 104.472 95.9002 103.017L99.8672 100.727C100.045 100.624 100.283 100.688 100.386 100.866L105.283 109.348C105.386 109.526 105.322 109.764 105.144 109.867L101.177 112.157Z" fill="#929292"/>
</svg>
