<svg width="150" height="73" viewBox="0 0 150 73" fill="none" xmlns="http://www.w3.org/2000/svg">
<path d="M0.0217708 7.20655C-0.0928434 6.66629 0.252212 6.13541 0.792473 6.02079C1.33273 5.90618 1.86362 6.25124 1.97823 6.7915L0.0217708 7.20655ZM143.535 6.11372C144.024 5.8569 144.628 6.04507 144.885 6.534L149.07 14.5017C149.327 14.9907 149.139 15.5952 148.65 15.852C148.161 16.1089 147.557 15.9207 147.3 15.4318L143.58 8.34934L136.497 12.0695C136.008 12.3263 135.404 12.1381 135.147 11.6492C134.89 11.1603 135.078 10.5557 135.567 10.2989L143.535 6.11372ZM1.97823 6.7915C2.34253 8.50874 2.74235 10.1935 3.17624 11.8456L1.24184 12.3537C0.799769 10.6704 0.392614 8.95461 0.0217708 7.20655L1.97823 6.7915ZM6.28538 21.6545C7.52587 24.9631 8.91458 28.1137 10.4366 31.1035L8.65431 32.0109C7.09765 28.9531 5.67892 25.7339 4.41268 22.3566L6.28538 21.6545ZM15.6383 39.9623C17.599 42.8738 19.7021 45.5883 21.9279 48.1026L20.4304 49.4283C18.1454 46.8472 15.9886 44.0628 13.9794 41.0795L15.6383 39.9623ZM29.2554 55.2986C31.9039 57.5522 34.6716 59.5699 37.5343 61.3473L36.4794 63.0464C33.5311 61.2159 30.6829 59.1393 27.9593 56.8218L29.2554 55.2986ZM46.6341 66.0605C49.8103 67.4 53.064 68.4713 56.3679 69.269L55.8984 71.2132C52.4887 70.3898 49.132 69.2846 45.8569 67.9033L46.6341 66.0605ZM66.4869 70.843C69.8851 71.0856 73.3067 71.0461 76.7237 70.719L76.9143 72.7099C73.3863 73.0477 69.8533 73.0884 66.3445 72.8379L66.4869 70.843ZM86.8021 68.9041C90.0607 68.0363 93.2903 66.896 96.466 65.4778L97.2815 67.304C94.0092 68.7653 90.679 69.9413 87.3168 70.8368L86.8021 68.9041ZM105.482 60.5939C108.292 58.7879 111.036 56.741 113.695 54.4487L115.001 55.9635C112.272 58.3157 109.453 60.4189 106.563 62.2764L105.482 60.5939ZM121.046 47.2219C123.265 44.7464 125.4 42.0706 127.437 39.191L129.07 40.3461C126.99 43.2867 124.807 46.0227 122.535 48.5568L121.046 47.2219ZM132.951 30.4548C134.587 27.5472 136.134 24.476 137.582 21.2388L139.408 22.0557C137.935 25.347 136.361 28.4729 134.694 31.4353L132.951 30.4548ZM141.4 11.6595C141.971 10.0418 142.52 8.38937 143.045 6.70184L144.955 7.2962C144.422 9.00735 143.866 10.6837 143.286 12.3253L141.4 11.6595Z" fill="#929292" fill-opacity="0.5"/>
<path d="M96.2303 8.92482C96.2303 7.61778 95.7211 6.36613 94.7173 5.20574C94.4208 4.86304 93.9032 4.82558 93.5609 5.12206C93.2182 5.41813 93.1807 5.93577 93.4772 6.27847C96.2893 9.52932 93.4087 12.6052 89.3788 14.31L89.3788 3.53129C90.0697 3.82578 90.7137 4.15134 91.3007 4.50719C91.688 4.7419 92.1921 4.61837 92.4268 4.23104C92.6615 3.84371 92.538 3.33962 92.1506 3.10491C86.7236 -0.1842 78.0534 -0.728534 71.5648 0.849077C69.5209 1.34599 68.0936 3.1336 68.0936 5.19657L68.0936 12.6535C68.0936 14.7164 69.5209 16.504 71.5648 17.001C82.6244 19.6899 96.2303 15.7836 96.2303 8.92482V8.92482ZM71.9521 15.4078C70.6459 15.0898 69.7333 13.9573 69.7333 12.6535L69.7333 5.19657C69.7333 3.89272 70.6459 2.75982 71.9521 2.44223C72.9188 2.20752 73.9183 2.02342 74.9452 1.89112L74.9452 15.9589C73.9183 15.8266 72.9188 15.6425 71.9521 15.4078ZM76.5849 16.1247L76.5849 1.72535C78.1346 1.61059 79.735 1.60541 81.3417 1.72137L81.3417 16.1267C79.7386 16.2454 78.1315 16.239 76.5849 16.1247ZM82.9814 15.9609L82.9814 1.88315C84.6786 2.09714 86.2845 2.44701 87.739 2.91882L87.739 14.9181C86.3 15.3839 84.6941 15.7405 82.9814 15.9609Z" fill="#929292"/>
<path d="M63.8004 13.8227L63.8004 4.02832C63.8004 2.91455 62.8947 2.00879 61.7813 2.00879L57.2003 2.00879C53.3867 2.00879 50.2837 5.11181 50.2837 8.92533C50.2837 12.0841 52.424 14.8397 55.4888 15.6267C55.9275 15.7391 56.3742 15.4749 56.487 15.0361C56.5994 14.5982 56.3352 14.1507 55.8968 14.0383C53.5573 13.4374 51.9235 11.335 51.9235 8.92533C51.9235 6.01598 54.2905 3.64856 57.2003 3.64856L61.7809 3.64856C61.9869 3.64856 62.1606 3.8223 62.1606 4.02832L62.1606 13.8227C62.1606 14.0288 61.9869 14.2025 61.7809 14.2025L58.7508 14.2025C58.2981 14.2025 57.9311 14.5695 57.9311 15.0222C57.9311 15.4753 58.2981 15.8423 58.7508 15.8423L61.7809 15.8423C62.8947 15.8423 63.8004 14.9365 63.8004 13.8227Z" fill="#929292"/>
<path d="M77.93 39.617C78.3771 39.5449 78.6815 39.1241 78.6094 38.677C78.5373 38.2303 78.1165 37.9259 77.6697 37.998C77.3486 38.0494 77.0242 38.0944 76.6978 38.1359L76.6978 24.0609C78.4105 24.2805 80.0164 24.6375 81.4554 25.1033L81.4554 37.0998C81.1717 37.1914 80.8804 37.2795 80.5819 37.3632C80.1455 37.4855 79.8913 37.9378 80.0136 38.3742C80.136 38.8101 80.5883 39.0643 81.0246 38.942C91.2502 36.0749 92.984 28.7288 84.6823 24.6279C79.2167 21.9286 71.3489 21.5453 65.2812 23.0205C63.2377 23.5174 61.81 25.305 61.81 27.3679L61.81 34.8248C61.81 36.8878 63.2373 38.6754 65.2812 39.1723C69.3944 40.1721 73.9638 40.255 77.93 39.617ZM83.0955 36.4917L83.0955 25.7114C90.1069 28.6774 89.9671 33.5859 83.0955 36.4917ZM65.6685 37.5788C64.3623 37.2612 63.4497 36.1287 63.4497 34.8244L63.4497 27.3679C63.4497 26.0637 64.3623 24.9312 65.6685 24.6136C66.6352 24.3785 67.6346 24.1948 68.6615 24.0621L68.6615 38.1303C67.6346 37.998 66.6352 37.8139 65.6685 37.5788ZM70.3013 38.2957L70.3013 23.8971C71.8482 23.7824 73.455 23.776 75.0581 23.8947L75.0581 38.2988C73.4717 38.414 71.8825 38.4132 70.3013 38.2957Z" fill="#929292"/>
<path d="M57.5167 35.9936L57.5167 26.1992C57.5167 25.0858 56.6109 24.1797 55.4975 24.1797L50.9165 24.1797C47.1026 24.1797 44 27.2827 44 31.0962C44 34.9101 47.1026 38.0132 50.9165 38.0132L55.4975 38.0132C56.6109 38.0132 57.5167 37.1074 57.5167 35.9936ZM50.9169 36.3734C48.0072 36.3734 45.6398 34.006 45.6398 31.0962C45.6398 28.1869 48.0072 25.8195 50.9169 25.8195L55.4975 25.8195C55.7031 25.8195 55.8769 25.9936 55.8769 26.1992L55.8769 35.9936C55.8769 36.1997 55.7031 36.3734 55.4975 36.3734L50.9169 36.3734Z" fill="#929292"/>
</svg>
