<svg width="170" height="130" viewBox="0 0 170 130" fill="none" xmlns="http://www.w3.org/2000/svg">
<path d="M1.31188 45.9908C0.911157 46.3709 0.894403 47.0038 1.27446 47.4046C1.65451 47.8053 2.28745 47.822 2.68818 47.442L1.31188 45.9908ZM138.724 126.728C139.067 127.16 139.697 127.232 140.129 126.888L147.171 121.284C147.603 120.94 147.675 120.311 147.331 119.879C146.987 119.447 146.358 119.375 145.926 119.719L139.666 124.7L134.685 118.44C134.341 118.008 133.712 117.937 133.279 118.281C132.847 118.625 132.776 119.254 133.12 119.686L138.724 126.728ZM2.68818 47.442C3.90687 46.2862 5.15546 45.1891 6.43154 44.1499L5.16858 42.5991C3.85343 43.6702 2.56703 44.8004 1.31188 45.9908L2.68818 47.442ZM14.593 38.4851C17.4765 36.7968 20.4599 35.3514 23.521 34.14L22.785 32.2803C19.631 33.5285 16.5558 35.0184 13.5825 36.7592L14.593 38.4851ZM33.0112 31.1763C36.2359 30.4216 39.5177 29.896 42.8341 29.5905L42.6507 27.5989C39.2456 27.9126 35.8727 28.4526 32.5555 29.2289L33.0112 31.1763ZM52.794 29.3233C56.0992 29.4444 59.4156 29.7698 62.7215 30.2911L63.033 28.3155C59.6505 27.7821 56.2545 27.4487 52.8672 27.3246L52.794 29.3233ZM72.4729 32.403C75.6678 33.2844 78.8312 34.3453 81.9428 35.5777L82.6793 33.7182C79.5017 32.4597 76.2699 31.3758 73.0047 30.4751L72.4729 32.403ZM91.0232 39.7401C93.9658 41.2804 96.8378 42.9789 99.6197 44.8276L100.727 43.1619C97.8867 41.2745 94.9547 39.5406 91.9507 37.9682L91.0232 39.7401ZM107.639 50.7863C110.198 52.9068 112.65 55.1669 114.975 57.5588L116.409 56.1649C114.033 53.7206 111.529 51.4118 108.915 49.2461L107.639 50.7863ZM121.525 65.0908C123.558 67.7121 125.449 70.4549 127.178 73.3118L128.889 72.2762C127.119 69.352 125.185 66.5457 123.105 63.8649L121.525 65.0908ZM131.824 82.1322C133.185 85.1393 134.374 88.2486 135.374 91.4532L137.284 90.8571C136.258 87.5734 135.04 84.388 133.647 81.3078L131.824 82.1322ZM137.753 101.123C138.339 104.347 138.739 107.652 138.938 111.032L140.935 110.915C140.731 107.454 140.322 104.068 139.721 100.765L137.753 101.123ZM138.941 120.993C138.846 122.644 138.704 124.311 138.512 125.993L140.5 126.219C140.695 124.5 140.84 122.796 140.937 121.108L138.941 120.993Z" fill="#929292" fill-opacity="0.5"/>
<path d="M95.9234 102.243C96.8476 101.319 97.3725 100.074 97.4833 98.5435C97.516 98.0915 97.1764 97.699 96.7247 97.6666C96.2731 97.6336 95.8805 97.9731 95.8479 98.4251C95.5376 102.712 91.3257 102.85 87.2707 101.206L94.8924 93.5845C95.1727 94.2814 95.3979 94.9669 95.5613 95.6336C95.6692 96.0734 96.113 96.3425 96.5529 96.2346C96.9927 96.1267 97.2618 95.6829 97.1539 95.243C95.6422 89.0798 89.8962 82.5641 84.1926 79.0915C82.396 77.9977 80.1227 78.2524 78.6639 79.7112L73.3911 84.984C71.9324 86.4427 71.6777 88.7161 72.7715 90.5126C78.6904 100.234 91.0735 107.093 95.9234 102.243V102.243ZM74.1719 89.66C73.4731 88.5115 73.6286 87.0654 74.5506 86.1435L79.8234 80.8707C80.7454 79.9487 82.1917 79.7929 83.34 80.4919C84.1895 81.0096 85.0264 81.5861 85.846 82.2187L75.8986 92.1661C75.266 91.3464 74.6895 90.5095 74.1719 89.66ZM76.9409 93.4428L87.1228 83.2609C88.2997 84.2756 89.435 85.4035 90.4891 86.6216L80.303 96.8077C79.0855 95.7581 77.9536 94.6172 76.9409 93.4428ZM81.5797 97.85L91.5342 87.8955C92.583 89.2469 93.4711 90.6299 94.166 91.9919L85.6812 100.477C84.3343 99.7886 82.9466 98.9052 81.5797 97.85Z" fill="#929292"/>
<path d="M69.5285 82.7756L76.4542 75.8499C77.2418 75.0623 77.2418 73.7814 76.4545 72.9941L73.2153 69.7549C70.5187 67.0583 66.1304 67.0583 63.4338 69.7549C61.2002 71.9885 60.7651 75.4503 62.3757 78.174C62.6065 78.5637 63.1092 78.6927 63.4992 78.4622C63.8883 78.232 64.0179 77.7288 63.7874 77.3394C62.558 75.2601 62.8894 72.6182 64.5933 70.9144C66.6505 68.8571 69.9983 68.8569 72.0558 70.9144L75.2947 74.1533C75.4404 74.299 75.4404 74.5447 75.2947 74.6904L68.369 81.6161C68.2234 81.7618 67.9777 81.7618 67.832 81.6161L65.6894 79.4735C65.3693 79.1534 64.8503 79.1534 64.5302 79.4735C64.2098 79.7939 64.2098 80.3129 64.5299 80.633L66.6725 82.7756C67.46 83.5632 68.741 83.5632 69.5285 82.7756Z" fill="#929292"/>
<path d="M61.2805 111.006C61.6476 111.271 62.1605 111.189 62.4256 110.822C62.6905 110.455 62.6082 109.942 62.2413 109.677C61.9779 109.486 61.7167 109.289 61.4566 109.087L71.4091 99.1348C72.4649 100.501 73.348 101.889 74.0361 103.236L65.5533 111.719C65.2879 111.583 65.0196 111.439 64.7494 111.287C64.3543 111.065 63.8548 111.205 63.6327 111.6C63.411 111.995 63.551 112.495 63.9461 112.717C73.204 117.92 79.6245 113.952 76.654 105.182C74.6979 99.4081 69.4057 93.5737 64.072 90.3263C62.2757 89.2327 60.0021 89.4871 58.5433 90.9459L53.2705 96.2187C51.8118 97.6774 51.5571 99.9508 52.6509 101.747C54.8524 105.363 58.0249 108.652 61.2805 111.006ZM67.143 112.449L74.7659 104.826C77.6264 111.881 74.0566 115.253 67.143 112.449ZM54.0516 100.894C53.3525 99.7462 53.5081 98.3002 54.4303 97.3779L59.7028 92.1054C60.6251 91.1831 62.0711 91.0276 63.2194 91.7267C64.0692 92.244 64.9058 92.8208 65.7257 93.4531L55.778 103.401C55.1454 102.581 54.5689 101.744 54.0516 100.894ZM56.8206 104.677L67.0019 94.4959C68.1769 95.5086 69.3175 96.6402 70.3671 97.8578L60.1818 108.043C58.9787 107.003 57.8555 105.878 56.8206 104.677Z" fill="#929292"/>
<path d="M49.4084 94.009L56.3341 87.0833C57.1214 86.296 57.1217 85.0148 56.3344 84.2275L53.0951 80.9883C50.3983 78.2914 46.0102 78.2917 43.3137 80.9883C40.6168 83.6851 40.6165 88.0732 43.3134 90.77L46.5527 94.0093C47.3399 94.7966 48.6209 94.7966 49.4084 94.009ZM44.4732 89.6108C42.4157 87.5533 42.4157 84.2053 44.4732 82.1478C46.5304 80.0905 49.8784 80.0905 51.9359 82.148L55.1749 85.387C55.3203 85.5324 55.32 85.7784 55.1746 85.9238L48.2489 92.8495C48.1032 92.9952 47.8575 92.9952 47.7121 92.8498L44.4732 89.6108Z" fill="#929292"/>
</svg>
